<svg width="70" height="70" viewBox="0 0 70 70" fill="none" xmlns="http://www.w3.org/2000/svg">
<rect width="70" height="70" rx="10" fill="#0CCDB4"/>
<path d="M29.1672 19.9939V22.9951C29.1256 23.5002 29.4966 23.9454 30.0009 23.9956H36.6704C37.1747 23.9454 37.5457 23.5002 37.5041 22.9951V19.9939" stroke="white" stroke-width="2" stroke-linecap="round" stroke-linejoin="round"/>
<path d="M37.7891 48.339H26.6628C24.8211 48.339 23.3281 46.846 23.3281 45.0043V23.3286C23.3281 21.4869 24.8211 19.9939 26.6628 19.9939H40.0017C41.8435 19.9939 43.3365 21.4869 43.3365 23.3286V35.0302" stroke="white" stroke-width="2" stroke-linecap="round" stroke-linejoin="round"/>
<path d="M42.5031 50.0062C38.3593 50.0062 35 46.647 35 42.5031C35.0617 38.3851 38.3851 35.0617 42.5031 35C46.647 35 50.0062 38.3593 50.0062 42.5031C50.0062 46.647 46.647 50.0062 42.5031 50.0062" stroke="white" stroke-width="2" stroke-linecap="round" stroke-linejoin="round"/>
<path d="M45.0021 41.2527L41.8774 44.379L40 42.5032" stroke="white" stroke-width="2" stroke-linecap="round" stroke-linejoin="round"/>
</svg>
