<svg width="70" height="70" viewBox="0 0 70 70" fill="none" xmlns="http://www.w3.org/2000/svg">
<rect width="70" height="70" rx="10" fill="#0CCDB4"/>
<path d="M51.6714 30L47.3047 31.6667" stroke="white" stroke-width="2" stroke-linecap="round" stroke-linejoin="round"/>
<path d="M22.7193 31.6667L18.3359 30" stroke="white" stroke-width="2" stroke-linecap="round" stroke-linejoin="round"/>
<path d="M45.4167 38.3333H41.25" stroke="white" stroke-width="2" stroke-linecap="round" stroke-linejoin="round"/>
<path d="M28.7526 38.3333H24.5859" stroke="white" stroke-width="2" stroke-linecap="round" stroke-linejoin="round"/>
<path d="M47.2976 31.6667L45.8993 24.9801C45.4943 23.0501 43.7926 21.6667 41.8193 21.6667H28.3526C26.4176 21.6667 24.7359 23.0001 24.2959 24.8851L22.7109 31.6667" stroke="white" stroke-width="2" stroke-linecap="round" stroke-linejoin="round"/>
<path fill-rule="evenodd" clip-rule="evenodd" d="M20.4193 48.3334H24.1693C25.5493 48.3334 26.6693 47.2134 26.6693 45.8334V44.1667H43.3359V45.8334C43.3359 47.2134 44.4559 48.3334 45.8359 48.3334H49.5859C50.7359 48.3334 51.6693 47.4001 51.6693 46.2501V36.6667C51.6693 33.9051 49.4309 31.6667 46.6693 31.6667H23.3359C20.5743 31.6667 18.3359 33.9051 18.3359 36.6667V46.2501C18.3359 47.4001 19.2693 48.3334 20.4193 48.3334Z" stroke="white" stroke-width="2" stroke-linecap="round" stroke-linejoin="round"/>
</svg>
